<?xml version="1.0" encoding="UTF-8"?>
<svg width="24px" height="24px" viewBox="0 0 24 24" version="1.1" xmlns="http://www.w3.org/2000/svg" xmlns:xlink="http://www.w3.org/1999/xlink">
    <title>Icons/24dp/ic_Calendar</title>
    <g id="Icons/24dp/ic_Calendar" stroke="none" stroke-width="1" fill="none" fill-rule="evenodd">
        <g id="Calendar" transform="translate(4, 4)" fill="#1F2937" fill-rule="nonzero">
            <path d="M12.45259,0.94336 L12.45259,0 L11.70259,0 L11.70259,0.94336 L3.29639,0.94336 L3.29639,0 L2.54639,0 L2.54639,0.94336 L0,0.94336 L0,15.99514 L15.05079,15.99514 L15.05079,0.94336 L12.45259,0.94336 Z M14.30079,1.69336 L14.30079,4.69436 L0.75,4.69436 L0.75,1.69336 L14.30079,1.69336 Z M0.75,15.24514 L0.75,5.44434 L14.30079,5.44434 L14.30079,15.24514 L0.75,15.24514 Z" id="Shape" stroke="#1F2937" stroke-width="0.25"></path>
            <polygon id="Path" points="2.54638 7.33204 3.29638 7.33204 3.29638 8.52934 2.54638 8.52934"></polygon>
            <polygon id="Path" points="5.59819 7.33204 6.34819 7.33204 6.34819 8.52934 5.59819 8.52934"></polygon>
            <polygon id="Path" points="8.65039 7.33204 9.40039 7.33204 9.40039 8.52934 8.65039 8.52934"></polygon>
            <polygon id="Path" points="11.70259 7.33204 12.45259 7.33204 12.45259 8.52934 11.70259 8.52934"></polygon>
        </g>
    </g>
</svg>