<?xml version="1.0" encoding="UTF-8"?>
<svg width="24px" height="24px" viewBox="0 0 24 24" version="1.1" xmlns="http://www.w3.org/2000/svg" xmlns:xlink="http://www.w3.org/1999/xlink">
    <title>Icons/24dp/ic_Duplicate</title>
    <g id="Icons/24dp/ic_Duplicate" stroke="none" stroke-width="1" fill="none" fill-rule="evenodd">
        <g id="Duplicate" transform="translate(5, 4)" fill="#1F2937" fill-rule="nonzero">
            <path d="M11.32372,2.72266 L11.32372,0 L3.44043,0 L3.44043,0.05811 L0.0506,4.72266 L0,4.72266 L0,13.86131 L2.19141,13.86131 L2.19141,16.58401 L13.51512,16.58401 L13.51512,2.72266 L11.32372,2.72266 Z M10.57372,0.75 L10.57372,2.72266 L5.63182,2.72266 L5.63182,2.78125 L4.19043,4.76461 L4.19043,0.75 L10.57372,0.75 Z M5.63182,4.05615 L5.63182,7.44531 L3.16884,7.44531 L5.63182,4.05615 Z M3.44043,1.33399 L3.44043,4.72266 L0.97748,4.72266 L3.44043,1.33399 Z M0.75,13.11131 L0.75,5.47266 L3.67585,5.47266 L2.24237,7.44531 L2.19137,7.44531 L2.19137,13.11131 L0.75,13.11131 Z M12.76512,15.83401 L2.94141,15.83401 L2.94141,8.19531 L6.38182,8.19531 L6.38182,3.47266 L12.76512,3.47266 L12.76512,15.83401 Z" id="Shape"></path>
        </g>
    </g>
</svg>