<?xml version="1.0" encoding="UTF-8"?>
<svg width="24px" height="24px" viewBox="0 0 24 24" version="1.1" xmlns="http://www.w3.org/2000/svg" xmlns:xlink="http://www.w3.org/1999/xlink">
    <title>Icons/24dp/ic_InfoCircleFilled</title>
    <g id="Icons/24dp/ic_InfoCircleFilled" stroke="none" stroke-width="1" fill="none" fill-rule="evenodd">
        <g id="InfoCircle" transform="translate(4, 4)" fill="#1F2937" fill-rule="nonzero" stroke="#1F2937" stroke-width="0.25">
            <path d="M8.29205319,0 C10.4902532,0.00273001542 12.5976532,0.877260015 14.1519532,2.43175002 C15.7062532,3.98624002 16.5805532,6.09372002 16.5830532,8.29202002 C16.5830532,9.93192002 16.0965532,11.53492 15.1853532,12.89842 C14.2742532,14.26192 12.9791532,15.32462 11.4640532,15.95202 C9.94895319,16.57952 8.28185319,16.74362 6.67345319,16.42362 C5.06505319,16.10362 3.58769319,15.31382 2.42817319,14.15412 C1.26865319,12.99452 0.479053188,11.51702 0.159223188,9.90862002 C-0.160606812,8.30022002 0.0036931881,6.63302002 0.631353188,5.11802002 C1.25900319,3.60298002 2.32183319,2.30809002 3.68541319,1.39709002 C5.04900319,0.486090015 6.65215319,0 8.29205319,0 Z M8.96245319,5.97562002 L7.72125319,5.97562002 L7.72125319,13.23642 L8.96245319,13.23642 L8.96245319,5.97562002 Z M8.45329763,3.33234298 L8.35215319,3.33208002 C8.25135319,3.32476002 8.15015319,3.33958002 8.05565319,3.37551002 C7.96115319,3.41144002 7.87565319,3.46761002 7.80525319,3.54008002 C7.68145319,3.68057002 7.61555319,3.86271002 7.62065319,4.04985002 C7.61465319,4.23508002 7.68085319,4.41539002 7.80525319,4.55278002 C7.87665319,4.62361002 7.96245319,4.67830002 8.05675319,4.71317002 C8.15105319,4.74804002 8.25185319,4.76228002 8.35215319,4.75492002 C8.44855319,4.76452002 8.54595319,4.75315002 8.63765319,4.72157002 C8.72925319,4.69000002 8.81305319,4.63897002 8.88305319,4.57200002 C8.95315319,4.50502002 9.00795319,4.42368002 9.04365319,4.33356002 C9.07935319,4.24343002 9.09515319,4.14665002 9.08995319,4.04985002 C9.09495319,3.86220002 9.02785319,3.67977002 8.90245319,3.54008002 C8.83105319,3.46781002 8.74495319,3.41180002 8.65005319,3.37590002 C8.58671985,3.35196668 8.52045319,3.3373489 8.45329763,3.33234298 Z" id="Combined-Shape"></path>
        </g>
    </g>
</svg>