<?xml version="1.0" encoding="UTF-8"?>
<svg width="24px" height="24px" viewBox="0 0 24 24" version="1.1" xmlns="http://www.w3.org/2000/svg"
    xmlns:xlink="http://www.w3.org/1999/xlink">
    <title>Icons/24dp/ic_InfoCircle</title>
    <g id="Icons/24dp/ic_InfoCircle" stroke="none" stroke-width="1" fill="none" fill-rule="evenodd">
        <g id="InfoCircle" transform="translate(4, 4)" fill="#000" fill-rule="nonzero">
            <polygon id="Path"
                points="7.72125319 5.97562002 8.96245319 5.97562002 8.96245319 13.23642 7.72125319 13.23642"></polygon>
            <path
                d="M8.35215319,3.33208002 C8.25135319,3.32476002 8.15015319,3.33958002 8.05565319,3.37551002 C7.96115319,3.41144002 7.87565319,3.46761002 7.80525319,3.54008002 C7.68145319,3.68057002 7.61555319,3.86271002 7.62065319,4.04985002 C7.61465319,4.23508002 7.68085319,4.41539002 7.80525319,4.55278002 C7.87665319,4.62361002 7.96245319,4.67830002 8.05675319,4.71317002 C8.15105319,4.74804002 8.25185319,4.76228002 8.35215319,4.75492002 C8.44855319,4.76452002 8.54595319,4.75315002 8.63765319,4.72157002 C8.72925319,4.69000002 8.81305319,4.63897002 8.88305319,4.57200002 C8.95315319,4.50502002 9.00795319,4.42368002 9.04365319,4.33356002 C9.07935319,4.24343002 9.09515319,4.14665002 9.08995319,4.04985002 C9.09495319,3.86220002 9.02785319,3.67977002 8.90245319,3.54008002 C8.83105319,3.46781002 8.74495319,3.41180002 8.65005319,3.37590002 C8.55505319,3.34000002 8.45345319,3.32506002 8.35215319,3.33208002 Z"
                id="Path"></path>
            <path
                d="M8.29205319,0 C6.65215319,0 5.04900319,0.486090015 3.68541319,1.39709002 C2.32183319,2.30809002 1.25900319,3.60298002 0.631353188,5.11802002 C0.0036931881,6.63302002 -0.160606812,8.30022002 0.159223188,9.90862002 C0.479053188,11.51702 1.26865319,12.99452 2.42817319,14.15412 C3.58769319,15.31382 5.06505319,16.10362 6.67345319,16.42362 C8.28185319,16.74362 9.94895319,16.57952 11.4640532,15.95202 C12.9791532,15.32462 14.2742532,14.26192 15.1853532,12.89842 C16.0965532,11.53492 16.5830532,9.93192002 16.5830532,8.29202002 C16.5805532,6.09372002 15.7062532,3.98624002 14.1519532,2.43175002 C12.5976532,0.877260015 10.4902532,0.00273001542 8.29205319,0 Z M8.29205319,15.83302 C6.80045319,15.83302 5.34235319,15.39072 4.10212319,14.56202 C2.86192319,13.73332 1.89530319,12.55542 1.32452319,11.17742 C0.753733188,9.79932002 0.604413188,8.28292002 0.895443188,6.82002002 C1.18647319,5.35711002 1.90478319,4.01334002 2.95953319,2.95866002 C4.01428319,1.90398002 5.35805319,1.18576002 6.82105319,0.894830015 C8.28395319,0.603890015 9.80035319,0.753310015 11.1783532,1.32419002 C12.5563532,1.89507002 13.7341532,2.86176002 14.5627532,4.10202002 C15.3914532,5.34228002 15.8335532,6.80042002 15.8335532,8.29202002 C15.8311532,10.29132 15.0358532,12.20812 13.6220532,13.62192 C12.2082532,15.03562 10.2913532,15.83082 8.29205319,15.83302 L8.29205319,15.83302 Z"
                id="Shape" stroke="#000" stroke-width="0.25"></path>
        </g>
    </g>
</svg>