<?xml version="1.0" encoding="UTF-8"?>
<svg width="32px" height="32px" viewBox="0 0 32 32" version="1.1" xmlns="http://www.w3.org/2000/svg" xmlns:xlink="http://www.w3.org/1999/xlink">
    <title>Icons/32dp/ic_Link</title>
    <g id="Icons/32dp/ic_Link" stroke="none" stroke-width="1" fill="none" fill-rule="evenodd">
        <g id="Link" transform="translate(16, 16) scale(-1, 1) translate(-16, -16)translate(5.5, 5.5)" fill="#1F2937" fill-rule="nonzero" stroke="#1F2937" stroke-width="0.25">
            <path d="M20.1494474,15.6316034 L15.4867862,10.9662911 C14.9487761,10.4584185 14.2504512,10.1543926 13.5120826,10.1063958 C12.7738534,10.0583991 12.041903,10.2695011 11.4426412,10.7032857 L10.2964397,9.55666559 C10.7278523,8.96089194 10.9389543,8.23368533 10.8938876,7.49950245 C10.8486814,6.76531956 10.5500969,6.06954804 10.0489215,5.53106354 L5.38695789,0.866993062 C5.0779788,0.576752234 4.71436154,0.350846589 4.31728608,0.202419422 C3.92019667,0.0539922554 3.49756014,-0.0140124457 3.0739609,0.00239574642 C2.65036165,0.018789986 2.23424097,0.119262258 1.84982047,0.297938541 C1.46539997,0.476628776 1.12035354,0.729965124 0.834731008,1.04322765 C0.549108473,1.35647622 0.328630367,1.72340023 0.186119079,2.12265229 C0.0436077914,2.52189039 -0.0181043123,2.94548964 0.00458252481,3.36880984 C0.0272693619,3.79211608 0.133908658,4.20668803 0.318277579,4.58841569 C0.502660453,4.97014335 0.761103432,5.31139468 1.07856567,5.59232916 L5.55387218,10.0697006 C6.09341707,10.5619464 6.78613299,10.8532755 7.515279,10.8944355 C8.2445785,10.9355955 8.96564599,10.7242145 9.55723387,10.2958714 L10.7034354,11.4424915 C10.2399319,12.0831923 10.0318994,12.873604 10.1196609,13.6595508 C10.207562,14.4453581 10.5849783,15.1703323 11.1785195,15.6929946 L15.6544958,20.1703661 C16.264501,20.724003 17.0646794,21.0207737 17.8881586,20.9988682 C18.7116377,20.9768231 19.4947941,20.6379158 20.0745223,20.0526066 C20.6542505,19.4672974 20.9856234,18.6807924 20.999576,17.8571737 C21.0135285,17.0335551 20.7089445,16.2363067 20.1494474,15.6316034 Z M7.70196405,9.85303036 C7.17617637,9.85483146 6.66824794,9.66270492 6.27531639,9.31347274 L1.80684663,4.84157066 L1.78163438,4.81704208 C1.56767212,4.62921293 1.39311183,4.40079583 1.26808308,4.14501778 C1.14305433,3.88923974 1.07002672,3.61117948 1.05324181,3.32698011 C1.03647085,3.04276678 1.0762635,2.75805116 1.17031761,2.48933911 C1.26438566,2.2206131 1.41084552,1.97324845 1.60121403,1.76154649 C1.79158255,1.54984453 2.02207858,1.37804686 2.27933559,1.25608767 C2.53659261,1.13411452 2.81550397,1.06443552 3.09988473,1.05105503 C3.38427944,1.03767454 3.66849277,1.08087161 3.93606071,1.17814875 C4.2036426,1.27541194 4.44924924,1.42482974 4.65864903,1.61772366 L9.291996,6.25312166 C9.60481205,6.5930475 9.79833384,7.02563218 9.84326103,7.48541038 C9.88832775,7.94514671 9.78214889,8.40697593 9.54118844,8.80113531 L8.98001711,8.23968493 L8.24011368,8.9781931 L8.80212217,9.54034111 C8.47088877,9.74293205 8.09040288,9.8512038 7.70196405,9.85303036 L7.70196405,9.85303036 Z M17.80249,19.9536958 C17.2767581,19.9554969 16.7688855,19.7633704 16.3759818,19.4139986 L11.9067028,14.9422082 L11.8815882,14.9176517 C11.6506736,14.7156189 11.4656629,14.4664264 11.3388343,14.1870965 C11.2121452,13.907627 11.1464287,13.6044382 11.1464287,13.2976218 C11.148382,12.909462 11.2562352,12.5292552 11.4586866,12.1980218 L12.0198579,12.7593326 L12.7597614,12.0208244 L12.1976134,11.458816 C12.5941447,11.2161812 13.059183,11.1101419 13.5215703,11.1567434 C13.9840971,11.2034844 14.4185794,11.4002153 14.7586029,11.716938 L19.3926614,16.3537871 C19.6733866,16.6619988 19.8583974,17.0451357 19.9253696,17.4565962 C19.9923418,17.8680567 19.9383454,18.2901212 19.7699382,18.6715838 C19.6013915,19.0529068 19.3258287,19.3770244 18.9765966,19.6047299 C18.6273644,19.8322959 18.219392,19.9535435 17.80249,19.9536958 L17.80249,19.9536958 Z" id="Shape"></path>
        </g>
    </g>
</svg>