<?xml version="1.0" encoding="UTF-8"?>
<svg width="24px" height="24px" viewBox="0 0 24 24" version="1.1" xmlns="http://www.w3.org/2000/svg" xmlns:xlink="http://www.w3.org/1999/xlink">
    <title>Icons/24dp/ic_Repeat</title>
    <g id="Icons/24dp/ic_Repeat" stroke="none" stroke-width="1" fill="none" fill-rule="evenodd">
        <g id="Repeat" transform="translate(3, 4)" fill="#1F2937" fill-rule="nonzero" stroke="#1F2937" stroke-width="0.55">
            <path d="M8.27162023,15.8126795 C6.88072023,15.8153795 5.51620023,15.4333795 4.32890023,14.7089795 C3.14159023,13.9844795 2.17775023,12.9457795 1.54396023,11.7076795 C0.910170226,10.4695795 0.631110226,9.08037953 0.737640226,7.69357953 C0.844170226,6.30677953 1.33214023,4.97647953 2.14759023,3.84971953 C2.96304023,2.72296953 4.07421023,1.84366953 5.35824023,1.30904953 C6.64222023,0.77442953 8.04912023,0.60531953 9.42332023,0.82040953 C10.7974202,1.03549953 12.0853202,1.62641953 13.1445202,2.52782953 C14.2038202,3.42923953 14.9931202,4.60601953 15.4253202,5.92807953 L13.0050202,5.95527953 L13.0138202,6.70527953 L16.3097202,6.66717953 L17.9249202,3.79512953 L17.2706202,3.42793953 L16.0909202,5.52607953 C15.4170202,3.61594953 14.0664202,2.01903953 12.2946202,1.03743953 C10.5228202,0.0558395304 8.45272023,-0.24237047 6.47592023,0.19920953 C4.49915023,0.64079953 2.75272023,1.79155953 1.56706023,3.43380953 C0.381400226,5.07604953 -0.161269774,7.09587953 0.0417002263,9.11117953 C0.244670226,11.1265795 1.17921023,12.9975795 2.66853023,14.3704795 C4.15785023,15.7432795 6.09862023,16.5226795 8.12382023,16.5612795 C10.1490202,16.5997795 12.1180202,15.8947795 13.6585202,14.5795795 C15.1990202,13.2643795 16.2040202,11.4302795 16.4835202,9.42407953 L15.7408202,9.32057953 C15.4825202,11.1190795 14.5857202,12.7646795 13.2143202,13.9565795 C11.8430202,15.1485795 10.0886202,15.8073795 8.27162023,15.8126795 Z" id="Path"></path>
        </g>
    </g>
</svg>