<?xml version="1.0" encoding="UTF-8"?>
<svg width="24px" height="24px" viewBox="0 0 24 24" version="1.1" xmlns="http://www.w3.org/2000/svg" xmlns:xlink="http://www.w3.org/1999/xlink">
    <title>Icons/24dp/ic_Search</title>
    <g id="Icons/24dp/ic_Search" stroke="none" stroke-width="1" fill="none" fill-rule="evenodd">
        <g id="Search" transform="translate(4.000000, 4.000000)" fill="#000" fill-rule="nonzero" stroke="#000" stroke-width="0.25">
            <path d="M9.2986565,8.7987165 C11.1986565,6.5987165 10.9986565,3.1986965 8.7986565,1.2986965 C6.5986565,-0.601303496 3.1986965,-0.401303496 1.2986965,1.7986965 C-0.601303496,3.9986965 -0.401303496,7.3987165 1.7986965,9.2987165 C3.7986965,10.9987165 6.6986565,10.9987165 8.6986565,9.2987165 L14.6986565,15.2987165 L15.1986565,14.7987165 L9.2986565,8.7987165 Z M5.2986965,9.7987165 C2.7986965,9.7987165 0.798696504,7.7987165 0.798696504,5.2986965 C0.798696504,2.7986965 2.7986965,0.798696504 5.2986965,0.798696504 C7.7986565,0.798696504 9.7986565,2.7986965 9.7986565,5.2986965 C9.7986565,7.7987165 7.7986565,9.7987165 5.2986965,9.7987165 Z" id="Shape"></path>
        </g>
    </g>
</svg>