<?xml version="1.0" encoding="UTF-8"?>
<svg width="24px" height="24px" viewBox="0 0 24 24" version="1.1" xmlns="http://www.w3.org/2000/svg" xmlns:xlink="http://www.w3.org/1999/xlink">
    <title>Icons/24dp/ic_Share</title>
    <g id="Icons/24dp/ic_Share" stroke="none" stroke-width="1" fill="none" fill-rule="evenodd">
        <g id="Share" transform="translate(4, 4)" fill="#1F2937" fill-rule="nonzero" stroke="#1F2937" stroke-width="0.25">
            <path d="M12.7646856,10.6098682 C12.4090856,10.6108682 12.0585856,10.6949682 11.7411856,10.8554682 C11.4238856,11.0158682 11.1483856,11.2482682 10.9366856,11.5340682 L4.5697856,7.85766821 C4.5750956,7.79416821 4.5888956,7.73316821 4.5888956,7.66846821 C4.5888956,7.60596821 4.5754056,7.54706821 4.5704656,7.48576821 L11.0240856,3.76022821 C11.3965856,4.19270821 11.9180856,4.46935821 12.4850856,4.53527821 C13.0520856,4.60119821 13.6231856,4.45158821 14.0850856,4.11612821 C14.5468856,3.78065821 14.8657856,3.28384821 14.9783856,2.72425821 C15.0910856,2.16465821 14.9892856,1.58316821 14.6931856,1.09513821 C14.3970856,0.607098213 13.9283856,0.248178213 13.3800856,0.0895882128 C12.8316856,-0.0690117872 12.2437856,-0.0157017872 11.7328856,0.238938213 C11.2220856,0.493588213 10.8255856,0.930958213 10.6220856,1.46428821 C10.4185856,1.99761821 10.4230856,2.58793821 10.6345856,3.11813821 L4.3816756,6.72786821 C4.1667556,6.24996821 3.7945456,5.86016821 3.3270956,5.62346821 C2.8596356,5.38666821 2.3251556,5.31726821 1.8127356,5.42676821 C1.3003056,5.53626821 0.840885597,5.81806821 0.511035597,6.22526821 C0.181175597,6.63236821 0.000815597052,7.14026821 2.78894731e-06,7.66426821 C-0.000814402948,8.18826821 0.177975597,8.69666821 0.506565597,9.10486821 C0.835145597,9.51306821 1.2936956,9.79626821 1.8057756,9.90736821 C2.3178556,10.0184682 2.8525456,9.95066821 3.3207356,9.71536821 C3.7889256,9.48006821 4.1623356,9.09146821 4.3787456,8.61426821 L10.5933856,12.2025682 C10.5165856,12.4278682 10.4758856,12.6638682 10.4726856,12.9018682 C10.4726856,13.3550682 10.6071856,13.7981682 10.8589856,14.1749682 C11.1108856,14.5517682 11.4687856,14.8454682 11.8874856,15.0189682 C12.3062856,15.1923682 12.7670856,15.2377682 13.2115856,15.1492682 C13.6560856,15.0608682 14.0644856,14.8425682 14.3849856,14.5220682 C14.7053856,14.2015682 14.9236856,13.7932682 15.0120856,13.3487682 C15.1005856,12.9041682 15.0551856,12.4434682 14.8817856,12.0246682 C14.7083856,11.6059682 14.4146856,11.2479682 14.0377856,10.9961682 C13.6609856,10.7443682 13.2178856,10.6098682 12.7646856,10.6098682 L12.7646856,10.6098682 Z M12.7646856,0.744598213 C13.0696856,0.744598213 13.3677856,0.835038213 13.6213856,1.00447821 C13.8749856,1.17391821 14.0725856,1.41473821 14.1892856,1.69650821 C14.3059856,1.97826821 14.3365856,2.28830821 14.2770856,2.58742821 C14.2175856,2.88654821 14.0706856,3.16130821 13.8549856,3.37695821 C13.6393856,3.59261821 13.3645856,3.73947821 13.0654856,3.79897821 C12.7663856,3.85846821 12.4563856,3.82793821 12.1745856,3.71122821 C11.8927856,3.59451821 11.6519856,3.39686821 11.4825856,3.14328821 C11.3130856,2.88970821 11.2226856,2.59157821 11.2226856,2.28659821 C11.2229856,1.87773821 11.3855856,1.48570821 11.6746856,1.19659821 C11.9637856,0.907488213 12.3557856,0.744918213 12.7646856,0.744598213 Z M2.2969056,9.20946821 C1.9920156,9.20936821 1.6940156,9.11886821 1.4405656,8.94936821 C1.1871156,8.77996821 0.989615597,8.53906821 0.873035597,8.25736821 C0.756445597,7.97566821 0.726025597,7.66576821 0.785595597,7.36676821 C0.845175597,7.06766821 0.992075597,6.79306821 1.2077356,6.57756821 C1.4233856,6.36206821 1.6981056,6.21536821 1.9971556,6.15596821 C2.2961956,6.09656821 2.6061356,6.12716821 2.8877656,6.24396821 C3.1694056,6.36076821 3.4100956,6.55836821 3.5793956,6.81196821 C3.7486956,7.06546821 3.8390056,7.36356821 3.83890568,7.66846821 C3.8383756,8.07716821 3.6757056,8.46896821 3.3866156,8.75786821 C3.0975156,9.04676821 2.7056156,9.20916821 2.2969056,9.20946821 Z M12.7646856,14.4438683 C12.4596856,14.4439682 12.1614856,14.3535682 11.9078856,14.1841682 C11.6541856,14.0147682 11.4564856,13.7740682 11.3396856,13.4922682 C11.2228856,13.2104682 11.1922856,12.9004682 11.2517856,12.6012682 C11.3111856,12.3021682 11.4579856,12.0273682 11.6736856,11.8116682 C11.8892856,11.5959682 12.1639856,11.4490682 12.4631856,11.3894682 C12.7622856,11.3299682 13.0723856,11.3604682 13.3541856,11.4771682 C13.6359856,11.5938682 13.8767856,11.7914682 14.0462856,12.0450682 C14.2156856,12.2986682 14.3061856,12.5968682 14.3061856,12.9018682 C14.3057856,13.3105682 14.1431856,13.7024682 13.8541856,13.9915682 C13.5652856,14.2805682 13.1733856,14.4432682 12.7646856,14.4438683 Z" id="Shape"></path>
        </g>
    </g>
</svg>