<?xml version="1.0" encoding="UTF-8"?>
<svg width="80px" height="80px" viewBox="0 0 80 80" version="1.1" xmlns="http://www.w3.org/2000/svg" xmlns:xlink="http://www.w3.org/1999/xlink">
    <title>Icons/80dp/ic_WarningCircle</title>
    <g id="Icons/80dp/ic_WarningCircle" stroke="none" stroke-width="1" fill="none" fill-rule="evenodd">
        <g id="WarningCircle" transform="translate(4, 4)" fill="#000" fill-rule="nonzero">
            <path d="M36.1017565,51.6139537 C35.6641054,51.5813903 35.2251518,51.6452147 34.8148539,51.8002167 C34.404556,51.955653 34.0333341,52.1987935 33.7272388,52.5127052 C33.1884243,53.1253325 32.9023012,53.9190126 32.9257468,54.7344016 C32.899262,55.1533848 32.9639545,55.5728022 33.1159167,55.9644321 C33.2678788,56.3556278 33.502769,56.7090499 33.8049566,57.0003843 C34.1071443,57.2917187 34.4692484,57.5135845 34.8656526,57.6512194 C35.262491,57.7884201 35.6840775,57.8379165 36.1017565,57.7958011 C36.5389734,57.8253253 36.9774928,57.7628035 37.3890932,57.6125774 C37.8002595,57.4619171 38.1758232,57.227026 38.4910361,56.922232 C39.0402709,56.3291428 39.3329066,55.5424096 39.3051193,54.7344016 C39.3281307,53.9168417 39.0367975,53.1218591 38.4910361,52.5127052 C38.1810333,52.1992277 37.8072063,51.9569555 37.3947375,51.8019534 C36.9822688,51.6465172 36.5411443,51.5826928 36.1017565,51.6139537 Z" id="Path"></path>
            <polygon id="Path" points="38.3764132 45.4477368 38.7801985 15.0465333 33.131547 15.0465333 33.5092816 45.4477368"></polygon>
            <path d="M36.0023298,0 C28.8818161,0 21.9216876,2.11050309 16.0012844,6.06587812 C10.0808811,10.0212532 5.46635407,15.6433998 2.74119453,22.2213925 C0.0160349979,28.7995589 -0.697318906,36.037765 0.691311521,43.0211077 C2.07998537,50.0044504 5.50825221,56.4194522 10.5426291,61.4541974 C15.5770059,66.4893768 21.9913297,69.9185263 28.9747301,71.3079006 C35.9576095,72.6972749 43.1962195,71.9847864 49.7744453,69.2607444 C56.3526711,66.5362682 61.9752719,61.9222429 65.9314988,56.0022057 C69.8877257,50.0826027 72,43.1222715 72,36.0021623 C71.9891456,26.458029 68.1931302,17.3073926 61.4447068,10.5581161 C54.6962833,3.80888295 45.5464232,0.0118531667 36.0023298,0 Z M36.0023298,68.7436366 C29.5261357,68.7436366 23.1952609,66.8232608 17.8105461,63.2252155 C12.4258313,59.6271702 8.22902655,54.5129701 5.75078385,48.5299769 C3.27258458,42.5465495 2.62427049,35.9630861 3.88785775,29.6110404 C5.15144501,23.2594722 8.27018659,17.4250987 12.8496755,12.8458946 C17.4291644,8.26669047 23.2636873,5.14832663 29.6155763,3.88512486 C35.9671614,2.62196651 42.5510315,3.27071748 48.5339997,5.74931786 C54.516968,8.22796166 59.6307125,12.4251747 63.2283086,17.810129 C66.8259048,23.1950834 68.7458385,29.5259412 68.7458385,36.0021623 C68.7354181,44.6831467 65.281969,53.0050648 59.1435652,59.14306 C53.0051613,65.2814895 44.6828438,68.7340847 36.0023298,68.7436366 L36.0023298,68.7436366 Z" id="Shape" stroke="#1F2937" stroke-width="1.08544416"></path>
        </g>
    </g>
</svg>