<svg xmlns="http://www.w3.org/2000/svg" width="64" height="64" viewBox="0 0 64 64">
  <path fill="none" stroke="#000" stroke-linecap="round" stroke-width="2" d="M48.8,17.5348638 C48.8716488,13.1288607 47.1246715,8.88259228 43.9583954,5.76667999 C40.7921194,2.65076666 36.4772178,0.931576932 32,1.00208643 C27.5227822,0.931576932 23.2078806,2.65076666 20.0416046,5.76667999 C16.8753286,8.88259228 15.1283512,13.1288607 15.2,17.5348638 C15.2,31.6249228 11,31.0617747 11,42.3340288 C11,53.2291286 20.9288,63 32,63 C43.0712,63 53,53.2291286 53,42.3340288 C53,31.0617747 48.8,31.6249228 48.8,17.5348638 Z M39.875,51.6287158 C41.3247476,51.6287158 42.5,50.4721575 42.5,49.0454693 C42.5,47.6187821 41.3247476,46.4622227 39.875,46.4622227 C38.4252524,46.4622227 37.25,47.6187821 37.25,49.0454693 C37.25,50.4721575 38.4252524,51.6287158 39.875,51.6287158 Z M29.375,53.6953132 C30.2448484,53.6953132 30.95,53.0013782 30.95,52.1453649 C30.95,51.2893526 30.2448484,50.5954176 29.375,50.5954176 C28.5051516,50.5954176 27.8,51.2893526 27.8,52.1453649 C27.8,53.0013782 28.5051516,53.6953132 29.375,53.6953132 Z M45.125,42.3290289 C45.9948484,42.3290289 46.7,41.6350939 46.7,40.7790816 C46.7,39.9230683 45.9948484,39.2291333 45.125,39.2291333 C44.2551516,39.2291333 43.55,39.9230683 43.55,40.7790816 C43.55,41.6350939 44.2551516,42.3290289 45.125,42.3290289 Z"/>
</svg>
