<svg xmlns="http://www.w3.org/2000/svg" width="64" height="64" viewBox="0 0 64 64">
  <path fill="none" stroke="#000" stroke-linecap="round" stroke-width="2" d="M1,63 L7.88888889,56.1111111 M11.0321431,30.8518519 L11.347668,31.1634374 C14.2790739,34.0581887 15.9259259,37.9843502 15.9259259,42.0781896 C15.9259259,46.1720277 14.2790739,50.0981892 11.347668,52.9929417 L8.19007915,56.1111111 L7.87455426,55.7995255 C4.94314833,52.9047742 3.2962963,48.9786127 3.2962963,44.8847734 C3.2962963,40.7909352 4.94314833,36.8647737 7.87455426,33.9700213 L11.0321431,30.8518519 Z M33.1481481,52.9678569 L32.8365626,52.652332 C29.9418113,49.7209261 26.0156498,48.0740741 21.9218104,48.0740741 C17.8279723,48.0740741 13.9018108,49.7209261 11.0070583,52.652332 L7.88888889,55.8099209 L8.20047448,56.1254457 C11.0952258,59.0568517 15.0213873,60.7037037 19.1152266,60.7037037 C23.2090648,60.7037037 27.1352263,59.0568517 30.0299787,56.1254457 L33.1481481,52.9678569 Z M53.8135714,4.20723819 C56.8808962,1.13991333 63,1 63,1 C63,1 62.8600867,7.11910378 59.7927618,10.1864286 C56.7254381,13.2537523 51.6395379,12.3604621 51.6395379,12.3604621 C51.6395379,12.3604621 50.7462477,7.27456189 53.8135714,4.20723819 Z M24.6804981,38.6199604 C19.1311916,33.4132923 19.1311916,24.9734137 24.6804981,19.7667444 L27.5513014,17.0740741 L27.8380204,17.3430025 C33.3873269,22.5496707 33.3873269,30.9895493 27.8380204,36.1962186 L24.9672171,38.8888889 L24.6804981,38.6199604 Z M25.3800396,39.3195019 C30.5867077,44.8688084 39.0265863,44.8688084 44.2332556,39.3195019 L46.9259259,36.4486986 L46.6569975,36.1619796 C41.4503293,30.6126731 33.0104507,30.6126731 27.8037814,36.1619796 L25.1111111,39.0327829 L25.3800396,39.3195019 Z M39.505348,23.7509482 C35.6216737,19.6403287 35.6216737,12.9772082 39.505348,8.8665887 L41.5145257,6.74074074 L41.7159821,6.95275548 C43.5815506,8.9264853 44.6296296,11.6035397 44.6296296,14.3949347 C44.6296296,17.1863308 43.5815506,19.8633852 41.7159821,21.837115 L39.7068044,23.962963 L39.505348,23.7509482 Z M40.2490518,24.494652 C44.3596713,28.3783263 51.0227918,28.3783263 55.1334113,24.494652 L57.2592593,22.4854743 L57.0472445,22.2840179 C55.0735147,20.4184494 52.3964603,19.3703704 49.6050653,19.3703704 C46.8136692,19.3703704 44.1366148,20.4184494 42.162885,22.2840179 L40.037037,24.2931956 L40.2490518,24.494652 Z"/>
</svg>
