<svg xmlns="http://www.w3.org/2000/svg" width="64" height="64" viewBox="0 0 64 64">
  <path fill="none" stroke="#000" stroke-linecap="round" stroke-width="2" d="M29.401317,58.3809059 C27.8969381,58.1951133 26.5555377,57.93225 25.4385345,57.93225 C21.1721752,57.93225 13.6322454,61.7669833 6.15530607,50.4554314 C-1.63752195,38.6654497 0.280365566,25.3242267 6.05753085,20.9288919 C12.3536541,16.136387 19.4376153,19.586734 25.4385345,19.586734 C31.4394537,19.586734 38.5205946,16.136387 44.8195381,20.9288919 C47.8169662,23.20937 49.7754941,27.8980433 49.8778527,33.5287794 M38,3 L38,6 C38,10.4182779 34.4182777,14 30,14 L30,11 C30,6.5817221 33.5817223,3 38,3 Z M26,19 C26,13.9147803 21.8405922,7.58913083 16,6 M30.300221,61.8789027 C29.0059956,60.6300695 28.882459,58.6444164 30.0133516,57.2547791 L48.0330188,35.1245858 C50.6687282,31.8868997 55.6441596,31.6004916 58.6612555,34.51177 C61.6783514,37.4230474 61.3807052,42.2239767 58.0261647,44.7672443 L35.0924204,62.1557106 C33.6522736,63.2469388 31.5944464,63.1285362 30.300221,61.8789027 Z M33.5863793,54.2152709 L35.7591379,56.386798 M50.9684483,42.2718719 L46.622931,37.9288177 M43.3637931,49.8722167 L46.622931,53.1295074 M57.4867241,33.5857635 C58.7318419,30.9354419 61.3564257,30.3284729 64.005,30.3284729"/>
</svg>
