<svg xmlns="http://www.w3.org/2000/svg" width="64" height="64" viewBox="0 0 64 64">
  <path fill="none" stroke="#000" stroke-linecap="round" stroke-width="2" d="M1,22 L1,32 C1,40.5 9.68,54 32,54 C55.0433333,54 63,53 63,44 L63,34 M26,25 C26,27.458509 20.647059,29.477017 17,29 C14.367647,28.323584 12,25.536121 12,23 C12,21.114627 13.441176,19 17,19 C19.617647,19 26,22.460299 26,25 Z M15,10 C7.2,10 1,15.6 1,23 C1,31.6 9.68,44 32,44 C55.0433333,44 63,43.4 63,34 C63,27.8 54.94,24 46,24 C32.7233333,24 34.2733333,10 15,10 Z"/>
</svg>
