<svg xmlns="http://www.w3.org/2000/svg" width="64" height="64" viewBox="0 0 64 64">
  <path fill="none" stroke="#000" stroke-linecap="round" stroke-width="2" d="M1.00168382,41.6193724 C1.003408,28.2577367 10.0960308,7.41358511 21.31137,7.41358511 C32.5267092,7.41358511 41.619332,28.2577367 41.6210562,41.6193724 C41.7649049,53.5173563 32.6738725,62.8484193 21.31137,62.9979894 C9.94886754,62.8484193 0.85783512,53.5173563 1.00168382,42.6883032 L1.00168382,41.6193724 Z M35.2074711,7.41358511 C38.0478997,3.57203149 41.4650278,1 44.8278488,1 C55.0043343,1 62.9993425,19.4864792 62.9996732,31.9989947 C63.0541539,41.1155008 56.2902297,48.9969022 46.9657105,50.1708192 M21.31137,52.3086809 C26.6240615,52.3086809 30.9311081,48.0014914 30.9317477,42.6883032 C30.9311081,37.3751151 26.6240615,33.0679256 21.31137,33.0679256 C15.9980389,33.0679256 11.6909923,37.3751151 11.6909923,42.6883032 C11.6909923,48.0014914 15.9980389,52.3086809 21.31137,52.3086809 Z"/>
</svg>
