<svg xmlns="http://www.w3.org/2000/svg" width="64" height="64" viewBox="0 0 64 64">
  <path fill="none" stroke="#000" stroke-linecap="round" stroke-width="2" d="M23.7283333,26.8283333 C25.440416,26.8283333 26.8283333,25.4404158 26.8283333,23.7283333 C26.8283333,22.0162509 25.440416,20.6283333 23.7283333,20.6283333 C22.0162507,20.6283333 20.6283333,22.0162509 20.6283333,23.7283333 C20.6283333,25.4404158 22.0162507,26.8283333 23.7283333,26.8283333 Z M40.2616667,26.8283333 C41.9737493,26.8283333 43.3616667,25.4404158 43.3616667,23.7283333 C43.3616667,22.0162509 41.9737493,20.6283333 40.2616667,20.6283333 C38.549584,20.6283333 37.1616667,22.0162509 37.1616667,23.7283333 C37.1616667,25.4404158 38.549584,26.8283333 40.2616667,26.8283333 Z M17.5283333,9.26166667 L17.5283333,3.06166667 C17.5283333,1.92027767 18.453611,0.995 19.595,0.995 L19.595,0.995 C20.736389,0.995 21.6616667,1.92027767 21.6616667,3.06166667 L21.6616667,9.26166667 M42.3283333,9.26166667 L42.3283333,3.06166667 C42.3283333,1.92027767 43.253611,0.995 44.395,0.995 L44.395,0.995 C45.536389,0.995 46.4616667,1.92027767 46.4616667,3.06166667 L46.4616667,9.26166667 M50.595,34.0616667 L48.5283333,9.26166667 L15.4616667,9.26166667 L13.395,34.0616667 M21.6616667,52.6616667 C23.9444436,52.6616667 25.795,50.8111103 25.795,48.5283333 C25.795,46.2455564 23.9444436,44.395 21.6616667,44.395 C19.3788897,44.395 17.5283333,46.2455564 17.5283333,48.5283333 C17.5283333,50.8111103 19.3788897,52.6616667 21.6616667,52.6616667 Z M42.3283333,52.6616667 C44.6111103,52.6616667 46.4616667,50.8111103 46.4616667,48.5283333 C46.4616667,46.2455564 44.6111103,44.395 42.3283333,44.395 C40.0455564,44.395 38.195,46.2455564 38.195,48.5283333 C38.195,50.8111103 40.0455564,52.6616667 42.3283333,52.6616667 Z M14.4283333,19.595 L11.3283333,19.595 C5.62138833,19.595 0.995,14.9686117 0.995,9.26166667 L0.995,9.26166667 L15.4616667,9.26166667 M49.5616667,19.595 L52.6616667,19.595 C58.3686117,19.595 62.995,14.9686117 62.995,9.26166667 L62.995,9.26166667 L48.5283333,9.26166667 M50.595,34.0616667 L13.395,34.0616667 C11.112222,34.0616667 9.26166667,35.912222 9.26166667,38.195 L9.26166667,48.5283333 C9.26166667,56.5180563 15.7386103,62.995 23.7283333,62.995 L40.2616667,62.995 C48.2513897,62.995 54.7283333,56.5180563 54.7283333,48.5283333 L54.7283333,38.195 C54.7283333,35.912222 52.877778,34.0616667 50.595,34.0616667 Z"/>
</svg>
