<svg xmlns="http://www.w3.org/2000/svg" width="64" height="64" viewBox="0 0 64 64">
  <path fill="none" stroke="#000" stroke-linecap="round" stroke-width="2" d="M18.7142857,35.4444444 L16.7460317,42.3333333 C13.4807508,52.8788791 21.4850788,63 32.4920635,63 C43.4997027,63 51.5041332,52.8777616 48.2380952,42.3333333 L46.2698413,35.4444444 M36.5,1.5 C35.9134736,3.16212625 35.4444444,4.5142926 35.4444444,6.9047619 C35.4444444,14.2971074 41.8113421,20.6825397 49.2222222,20.6825397 C53.6613556,20.6825397 56.9165806,19.592012 59.5,16.5 M22.6507937,26.5873016 C25.6915998,26.5873016 28.5555556,23.7233448 28.5555556,20.6825397 C28.5555556,16.6576076 25.6915998,13.7936508 22.6507937,13.7936508 C18.6258616,13.7936508 15.7619048,16.6576076 15.7619048,20.6825397 C15.7619048,23.7233448 18.6258616,26.5873016 22.6507937,26.5873016 Z M1,25.6031746 C1,17.6604316 14.8791753,1 32.4920635,1 C49.1208247,1 63,17.6604316 63,25.6031746 C63,30.4369748 49.1208247,36.4285714 32.4920635,36.4285714 C14.8791753,36.4285714 1,30.1764706 1,25.6031746 Z"/>
</svg>
