<svg xmlns="http://www.w3.org/2000/svg" width="64" height="64" viewBox="0 0 64 64">
  <path fill="none" stroke="#000" stroke-linecap="round" stroke-width="2" d="M32,62 C49.1208272,62 63,48.5685425 63,32 C63,15.4314575 49.1208272,2 32,2 C14.8791728,2 1,15.4314575 1,32 C1,48.5685425 14.8791728,62 32,62 Z M32.9780877,9 C24,14.5 11.3363366,28.5187391 24,48 C22.7138276,47.3084225 14.8466843,42.5203111 13,30 C12.582412,29.4963594 12.0452152,28.8033047 11,31 C9.39026136,36.2723937 9.65219465,43.1279605 12,48 C15.7731183,55.474427 22.8041892,60.3961849 33,60 C42.3819704,59.577677 48.1595538,54.9466043 51,48 C54.4802659,40.8912146 53.3451716,30.5367063 48,23 C47.1783704,22.3531677 46.7773143,22.1343764 47,24 C49.0608214,30.30111 45.7458144,38.5993923 44,40 C49.1836427,25.5461138 39.5,13 32.9780877,9 Z"/>
</svg>
