<svg xmlns="http://www.w3.org/2000/svg" width="64" height="64" viewBox="0 0 64 64">
  <path fill="none" stroke="#000" stroke-linecap="round" stroke-width="2" d="M13,27 L13,9 L31.6923077,9 L40,33 M46,33 L46,25 C46,22.791 47.791,21 50,21 L52,21 M27,33 L50.8518519,33 C53.1136021,33 55,34.791 55,37 L55,41 M14,57 C20.627417,57 26,51.627417 26,45 C26,38.372583 20.627417,33 14,33 C7.372583,33 2,38.372583 2,45 C2,51.627417 7.372583,57 14,57 Z M6,28.0454545 C8.20717949,27.5258636 10.6328205,27 13.1794872,27 C23.3753846,27 31.6410256,35.4253182 31.6410256,45.8181818 C31.6410256,47.2368636 31.4871795,48.6503182 31.6410256,50 L46,50 M54,57 C58.418278,57 62,53.418278 62,49 C62,44.581722 58.418278,41 54,41 C49.581722,41 46,44.581722 46,49 C46,53.418278 49.581722,57 54,57 Z M13,9 L7,9"/>
</svg>
