<svg xmlns="http://www.w3.org/2000/svg" width="64" height="64" viewBox="0 0 64 64">
  <path fill="none" stroke="#000" stroke-linecap="round" stroke-width="2" d="M40,19 L57,19 L63,36 L63,48 L54,48 M8,48 L1,48 L1,10 L40,10 L40,34 M48,26 L48,33 L55,33 M14,54 C17.3137085,54 20,51.3137085 20,48 C20,44.6862915 17.3137085,42 14,42 C10.6862915,42 8,44.6862915 8,48 C8,51.3137085 10.6862915,54 14,54 Z M48,54 C51.3137085,54 54,51.3137085 54,48 C54,44.6862915 51.3137085,42 48,42 C44.6862915,42 42,44.6862915 42,48 C42,51.3137085 44.6862915,54 48,54 Z M42,48 L20,48"/>
</svg>
