<svg xmlns="http://www.w3.org/2000/svg" width="24" height="24" viewBox="0 0 24 24">
  <path d="M23.8,7.2 C23.8,7.2 23.6,5.5 22.8,4.8 C21.9,3.8 20.9,3.8 20.4,3.8 C17,3.6 12,3.6 12,3.6 L12,3.6 C12,3.6 7,3.6 3.6,3.8 C3.1,3.9 2.1,3.9 1.2,4.8 C0.5,5.5 0.2,7.2 0.2,7.2 C0.2,7.2 0,9.1 0,11.1 L0,12.9 C0,14.8 0.2,16.8 0.2,16.8 C0.2,16.8 0.4,18.5 1.2,19.2 C2.1,20.2 3.3,20.1 3.8,20.2 C5.7,20.4 12,20.4 12,20.4 C12,20.4 17,20.4 20.4,20.1 C20.9,20 21.9,20 22.8,19.1 C23.5,18.4 23.8,16.7 23.8,16.7 C23.8,16.7 24,14.8 24,12.8 L24,11 C24,9.1 23.8,7.2 23.8,7.2 Z M9.5,15.1 L9.5,8.4 L16,11.8 L9.5,15.1 Z"/>
</svg>
