<svg xmlns="http://www.w3.org/2000/svg" width="64" height="64" viewBox="0 0 64 64">
  <path d="M40.5,24 C42.3333333,24 44,25.6071429 44,27.6363636 L44,60.3636364 C43.8333333,62.2142857 42.3333333,64 40.5,64 C38.5,64 37,62.2142857 37,60.3636364 L37,27.6363636 C37,25.7857143 38.5,24 40.5,24 Z M29.5,28 C31.6341463,28 33,29.6089385 33,31.5555556 L33,56.4444444 C33,58.2122905 31.4634146,60 29.5,60 C27.3658537,60 26,58.3910615 26,56.4444444 L26,31.5555556 C26,29.7877095 27.5365854,28 29.5,28 Z M12.0430727,0.177940345 L12.3069916,0.251388808 L54.1906385,12.9750654 C56.1510094,13.5705991 57.8705084,14.7736702 59.1,16.4099676 C60.2607626,17.9547953 60.9196053,19.8140863 60.9930997,21.7380168 L61,22.0994503 L61,50.4257674 C61,52.3109741 60.2497202,54.1189677 58.9142136,55.4520101 C57.5048612,56.858762 55.429576,57.3515398 53.5458987,56.7449353 L53.311499,56.6633703 L47.2977531,54.4123767 C46.2635125,54.0252521 45.7395014,52.8745548 46.1273416,51.8422225 C46.4967133,50.8590489 47.5599481,50.3378146 48.5537869,50.6248154 L48.7022469,50.6739706 L54.7159928,52.9249642 C55.1912717,53.102865 55.7268604,52.9870656 56.0857864,52.6288018 C56.6223675,52.0932108 56.9434099,51.3826958 56.9931908,50.631536 L57,50.4257674 L57,22.0994503 C57,20.9116099 56.6140217,19.7558116 55.9,18.8055393 C55.2356049,17.9213137 54.3267872,17.2531875 53.2882598,16.8814211 L53.0259921,16.7947001 L11.1423451,4.07102355 C10.6233162,3.9133497 10.0608167,3.99607169 9.60940039,4.29646058 C9.27098294,4.52165593 9.05269497,4.88366963 9.00836452,5.28210864 L9,5.43303462 L9,31.5819215 C9,32.9391105 8.1045695,33.5782312 7,33.5782312 C5.9456382,33.5782312 5,32.9391105 5,31.5819215 L5,5.43303462 L5,5.43303462 C5,3.6413658 5.8970853,1.96823944 7.39059961,0.974400391 C8.76216372,0.0617114628 10.4534749,-0.22443541 12.0430727,0.177940345 Z M18.5,33 C20.5,33 22,34.5681818 22,36.5384615 L22,52.4615385 C22,54.2575758 20.5,56 18.5,56 C16.5,56 15,54.4318182 15,52.4615385 L15,36.5384615 C15,34.7424242 16.5,33 18.5,33 Z M7.5,37 C9.5,37 11,38.5384615 11,40.1111111 L11,47.8888889 C11,49.4615385 9.5,51 7.5,51 C5.5,51 4,49.6153846 4,47.8888889 L4,40.1111111 C4,38.5384615 5.5,37 7.5,37 Z"/>
</svg>
