<?xml version="1.0" encoding="UTF-8"?>
<svg width="24px" height="24px" viewBox="0 0 24 24" version="1.1" xmlns="http://www.w3.org/2000/svg" xmlns:xlink="http://www.w3.org/1999/xlink">
    <title>Icons/24dp/ic_Facebook</title>
    <g id="Icons/24dp/ic_Facebook" stroke="none" stroke-width="1" fill="none" fill-rule="evenodd">
        <g id="Facebook" transform="translate(8, 5)" fill="#1F2937" fill-rule="nonzero" stroke="#1F2937" stroke-width="0.25">
            <path d="M4.62004,14.51 L1.8,14.51 C1.61,14.51 1.45,14.35 1.45,14.16 L1.45,7.49 L0.35,7.49 C0.16,7.49 0,7.33 0,7.14 L0,4.83 C0,4.64 0.16,4.48 0.35,4.48 L1.45,4.48 L1.45,3.4 C1.45,1.14 2.65004,0 5.03004,0 C5.88004,0 6.52004,0.13 7.25004,0.28 C7.43004,0.32 7.55004,0.49 7.53004,0.68 L7.18004,2.89 C7.17004,2.98 7.11004,3.07 7.03004,3.12 C6.95004,3.17 6.86004,3.2 6.76004,3.18 C6.39004,3.11 5.88004,3.05 5.58004,3.05 C4.97004,3.05 4.97004,3.16 4.97004,3.72 L4.97004,4.48 L6.87004,4.48 C6.97004,4.48 7.06004,4.52 7.13004,4.59 C7.20004,4.66 7.23004,4.76 7.22004,4.86 L7.02004,7.17 C7.00004,7.35 6.85004,7.49 6.67004,7.49 L4.97004,7.49 L4.97004,14.16 C4.97004,14.35 4.81004,14.51 4.62004,14.51 Z M2.15004,13.81 L4.27004,13.81 L4.27004,7.14 C4.27004,6.95 4.43004,6.79 4.62004,6.79 L6.35004,6.79 L6.49004,5.18 L4.62004,5.18 C4.43004,5.18 4.27004,5.02 4.27004,4.83 L4.27004,3.71 C4.27004,3.05 4.37004,2.34 5.58004,2.34 C5.83004,2.34 6.20004,2.37 6.54004,2.42 L6.78004,0.89 C6.20004,0.77 5.69004,0.69 5.03004,0.69 C3.04004,0.7 2.15004,1.53 2.15004,3.4 L2.15004,4.83 C2.15004,5.02 1.99,5.18 1.8,5.18 L0.7,5.18 L0.7,6.79 L1.8,6.79 C1.99,6.79 2.15004,6.95 2.15004,7.14 L2.15004,13.81 Z" id="Shape"></path>
        </g>
    </g>
</svg>