<?xml version="1.0" encoding="UTF-8"?>
<svg width="24px" height="24px" viewBox="0 0 24 24" version="1.1" xmlns="http://www.w3.org/2000/svg" xmlns:xlink="http://www.w3.org/1999/xlink">
    <title>Icons/24dp/ic_LinkedIn</title>
    <g id="Icons/24dp/ic_LinkedIn" stroke="none" stroke-width="1" fill="none" fill-rule="evenodd">
        <g id="LinkedIn" transform="translate(4.265, 4.1292)" fill="#1F2937" stroke="#1F2937" stroke-width="0.25">
            <path d="M0.65,1.34707 C0.65,0.96212 0.96213,0.65 1.34707,0.65 L14.12289,0.65 C14.50789,0.65 14.81999,0.96212 14.81999,1.34707 L14.81999,14.12297 C14.81999,14.50787 14.50789,14.81997 14.12289,14.81997 L1.34707,14.81997 C0.96213,14.81997 0.65,14.50787 0.65,14.12297 L0.65,1.34707 Z M1.34707,0 C0.60314,0 0,0.60314 0,1.34707 L0,14.12297 C0,14.86687 0.60314,15.46997 1.34707,15.46997 L14.12289,15.46997 C14.86689,15.46997 15.46999,14.86687 15.46999,14.12297 L15.46999,1.34707 C15.46999,0.60314 14.86689,0 14.12289,0 L1.34707,0 Z M3.29878,3.80704 C3.17684,3.93155 3.09993,4.11302 3.09993,4.33623 C3.09993,4.7631 3.3798,5.0713 3.81615,5.0713 L3.8288,5.0713 C4.07199,5.0713 4.25185,4.98579 4.3714,4.86154 C4.492,4.73618 4.56667,4.55512 4.56735,4.33806 C4.5617,4.10979 4.48505,3.9273 4.36736,3.80402 C4.25131,3.68245 4.07808,3.59999 3.84039,3.59999 C3.60071,3.59999 3.41977,3.68349 3.29878,3.80704 Z M2.90583,3.42222 C3.13899,3.18413 3.46578,3.04999 3.84039,3.04999 C4.2151,3.04999 4.53653,3.18471 4.76519,3.42424 C4.99171,3.66152 5.10969,3.98299 5.11729,4.32902 L5.11742,4.33506 L5.11736,4.33506 C5.11736,4.68072 4.99737,5.00419 4.76775,5.24286 C4.53651,5.48321 4.20959,5.6213 3.8288,5.6213 L3.81615,5.6213 C3.04921,5.6213 2.54993,5.03932 2.54993,4.33623 C2.54993,3.98348 2.67361,3.65933 2.90583,3.42222 Z M8.88109,7.50367 C9.09389,7.25487 9.25799,7.09947 9.47499,6.99717 C9.69409,6.89387 9.99529,6.83207 10.50039,6.83207 C11.09239,6.83207 11.59659,7.02057 11.95339,7.39007 C12.31039,7.75967 12.55039,8.34237 12.55039,9.18967 L12.55039,12.14217 L11.02309,12.14217 L11.02309,9.41287 C11.02309,8.98817 10.93639,8.59157 10.71819,8.29437 C10.49049,7.98397 10.14409,7.81577 9.70909,7.81577 C9.01129,7.81577 8.62879,8.28707 8.46289,8.69587 C8.41849,8.80157 8.40499,8.91297 8.39989,9.00487 C8.39599,9.07547 8.39649,9.15257 8.39689,9.21987 L8.39689,9.21987 L8.39689,9.21987 L8.39689,9.21997 L8.39709,9.27607 L8.39709,12.14217 L6.89029,12.14217 L6.89279,11.57937 C6.89489,11.07287 6.89739,10.39247 6.89899,9.69697 C6.90169,8.59277 6.90229,7.43727 6.89539,6.88757 L8.39709,6.88757 L8.39709,7.32497 C8.39709,7.44017 8.46879,7.54307 8.57689,7.58297 C8.68489,7.62287 8.80629,7.59117 8.88109,7.50367 Z M6.41909,12.61107 C6.36739,12.55927 6.33859,12.48887 6.33896536,12.41577 L6.34279,11.57707 C6.34489,11.07077 6.34739,10.39077 6.34899,9.69557 C6.35239,8.29757 6.35219,6.85927 6.33939,6.62777 C6.33519,6.55227 6.36229,6.47847 6.41429,6.42357 C6.46619,6.36867 6.53839,6.33757 6.61399,6.33757 L8.67209,6.33757 C8.82399,6.33757 8.94709,6.46067 8.94709,6.61257 L8.94709,6.67477 C9.03649,6.60917 9.13309,6.55027 9.24049,6.49967 C9.56349,6.34737 9.95679,6.28207 10.50039,6.28207 C11.21049,6.28207 11.86879,6.51077 12.34899,7.00797 C12.82899,7.50497 13.10039,8.23857 13.10039,9.18967 L13.10039,12.41717 C13.10039,12.56897 12.97729,12.69217 12.82539,12.69217 L10.74809,12.69217 C10.59629,12.69217 10.47309,12.56897 10.47309,12.41717 L10.47309,9.41287 C10.47309,9.05157 10.39759,8.78707 10.27479,8.61977 C10.16169,8.46557 9.98849,8.36577 9.70909,8.36577 C9.31429,8.36577 9.08809,8.61677 8.97199,8.90407 L8.97009,8.90847 C8.96179,8.92807 8.95299,8.96577 8.94909,9.03547 C8.94619,9.08757 8.94649,9.14037 8.94679,9.20327 L8.94679,9.20327 L8.94679,9.20327 L8.94679,9.20327 L8.94709,9.27607 L8.94709,12.41717 C8.94709,12.56897 8.82399,12.69217 8.67209,12.69217 L6.61399,12.69217 C6.54079,12.69217 6.47069,12.66297 6.41909,12.61107 Z M2.89134,6.33767 C2.73946,6.33767 2.61634,6.46077 2.61634,6.61267 L2.61634,12.41697 C2.61634,12.56887 2.73946,12.69197 2.89134,12.69197 L4.72283,12.69197 C4.87471,12.69197 4.99783,12.56887 4.99783,12.41697 L4.99783,6.61267 C4.99783,6.46077 4.87471,6.33767 4.72283,6.33767 L2.89134,6.33767 Z M3.16634,12.14197 L3.16634,6.88767 L4.44783,6.88767 L4.44783,12.14197 L3.16634,12.14197 Z" id="Shape"></path>
        </g>
    </g>
</svg>