<?xml version="1.0" encoding="UTF-8"?>
<svg width="24px" height="24px" viewBox="0 0 24 24" version="1.1" xmlns="http://www.w3.org/2000/svg" xmlns:xlink="http://www.w3.org/1999/xlink">
    <title>Icons/24dp/ic_Instagram</title>
    <g id="Icons/24dp/ic_Instagram" stroke="none" stroke-width="1" fill="none" fill-rule="evenodd">
        <g id="Instagram" transform="translate(5, 5)" fill="#1F2937" stroke="#1F2937" stroke-width="0.25">
            <path d="M10.36905,0.79878 L10.36905,0.79879 C11.11505,0.8328 11.48505,0.95391 11.70985,1.04129 C12.01085,1.15827 12.20565,1.28545 12.42855,1.50837 C12.65145,1.73134 12.77865,1.92611 12.89565,2.2271 C12.98305,2.45194 13.10415,2.82186 13.13815,3.5679 L13.13815,3.56792 C13.17825,4.44686 13.18695,4.7021 13.18695,6.96846 C13.18695,9.23486 13.17825,9.49006 13.13815,10.36906 L13.13815,10.36906 C13.10415,11.11506 12.98305,11.48496 12.89565,11.70986 L13.59475,11.98156 L12.89565,11.70986 C12.77865,12.01086 12.65155,12.20556 12.42855,12.42846 L12.42855,12.42856 C12.20555,12.65146 12.01085,12.77866 11.70985,12.89566 L11.70985,12.89566 C11.48505,12.98306 11.11505,13.10416 10.36905,13.13816 L10.36905,13.13816 C9.49025,13.17826 9.23505,13.18696 6.96845,13.18696 C4.70193,13.18696 4.44676,13.17826 3.56793,13.13816 L3.5679,13.13816 C2.82185,13.10416 2.45193,12.98306 2.2271,12.89566 L2.22709,12.89566 C1.92611,12.77866 1.73136,12.65146 1.50843,12.42856 L1.50841,12.42856 C1.28545,12.20556 1.15826,12.01076 1.0413,11.70986 L1.04129,11.70986 C0.95392,11.48506 0.83282,11.11506 0.79878,10.36906 C0.75867,9.49006 0.75,9.23486 0.75,6.96846 C0.75,4.7021 0.75867,4.44685 0.79878,3.56793 C0.83282,2.82185 0.95392,2.45192 1.04129,2.2271 L1.0413,2.22709 C1.15827,1.92612 1.28545,1.73135 1.50839,1.50841 L1.5084,1.50839 C1.73135,1.28544 1.92611,1.15827 2.22709,1.0413 L1.95541,0.34223 L2.2271,1.04129 C2.45194,0.95391 2.82186,0.8328 3.56791,0.79879 L3.56793,0.79878 C4.44686,0.75868 4.7021,0.75 6.96845,0.75 C9.23485,0.75 9.49005,0.75868 10.36905,0.79878 Z M1.95541,0.34223 C1.55865,0.49643 1.27551,0.68062 0.97806,0.97808 C0.68063,1.2755 0.49643,1.55865 0.34223,1.95541 C0.22583,2.25493 0.08737,2.705 0.04956,3.53374 C0.00866,4.43003 0,4.69888 0,6.96846 C0,9.23806 0.00866,9.50686 0.04956,10.40316 C0.08737,11.23196 0.22583,11.68196 0.34223,11.98156 C0.49643,12.37826 0.68064,12.66146 0.97808,12.95886 C1.27551,13.25636 1.55865,13.44056 1.95541,13.59466 C2.25493,13.71116 2.705,13.84956 3.53374,13.88736 C4.42993,13.92826 4.69871,13.93696 6.96845,13.93696 C9.23825,13.93696 9.50705,13.92826 10.40325,13.88736 C11.23195,13.84956 11.68205,13.71116 11.98155,13.59466 C12.37825,13.44056 12.66145,13.25636 12.95885,12.95886 C13.25635,12.66146 13.44055,12.37826 13.59475,11.98156 C13.71115,11.68196 13.84955,11.23196 13.88735,10.40316 C13.92825,9.50686 13.93695,9.23806 13.93695,6.96846 C13.93695,4.69888 13.92825,4.43003 13.88735,3.53374 C13.84955,2.705 13.71115,2.25493 13.59475,1.95541 C13.44055,1.55865 13.25635,1.2755 12.95885,0.97804 C12.66145,0.68062 12.37825,0.49643 11.98155,0.34223 C11.68205,0.22583 11.23195,0.08735 10.40325,0.04956 C9.50695,0.00867 9.23805,0 6.96845,0 C4.69888,0 4.43003,0.00867 3.53374,0.04956 C2.705,0.08735 2.25493,0.22583 1.95541,0.34223 Z M11.31345,2.79098 C11.31345,2.94007 11.19255,3.06096 11.04345,3.06096 C10.89435,3.06096 10.77345,2.94009 10.77345,2.79098 C10.77345,2.64184 10.89435,2.52096 11.04345,2.52096 C11.19255,2.52096 11.31345,2.64185 11.31345,2.79098 Z M11.04345,3.81096 C11.60675,3.81096 12.06345,3.35431 12.06345,2.79098 C12.06345,2.22764 11.60675,1.77096 11.04345,1.77096 C10.48015,1.77096 10.02345,2.22764 10.02345,2.79098 C10.02345,3.35431 10.48015,3.81096 11.04345,3.81096 Z M7.24825,10.50626 C9.06385,10.50626 10.53575,9.03456 10.53575,7.21896 C10.53575,5.40336 9.06385,3.93149 7.24825,3.93149 C5.43285,3.93149 3.96094,5.40336 3.96094,7.21896 C3.96094,9.03456 5.43275,10.50626 7.24825,10.50626 Z M11.28575,7.21896 C11.28575,9.44876 9.47805,11.25626 7.24825,11.25626 C5.01855,11.25626 3.21094,9.44876 3.21094,7.21896 C3.21094,4.98916 5.01855,3.18149 7.24825,3.18149 C9.47805,3.18149 11.28575,4.98916 11.28575,7.21896 Z" id="Shape"></path>
        </g>
    </g>
</svg>