<svg xmlns="http://www.w3.org/2000/svg" width="24" height="24" viewBox="0 0 24 24">
  <path d="M21.995,-0.005 L1.995,-0.005 C0.89,-0.005 -0.005,0.89 -0.005,1.995 L-0.005,21.995 C-0.005,23.1 0.89,23.995 1.995,23.995 L12.995,23.995 L12.995,14.995 L9.995,14.995 L9.995,10.995 L12.995,10.995 L12.995,8.408 C12.995,5.308 14.888,3.62 17.654,3.62 C18.979,3.62 20.117,3.719 20.449,3.763 L20.449,7.003 L18.531,7.004 C17.027,7.004 16.736,7.719 16.736,8.767 L16.736,10.995 L21.176,10.995 L20.176,14.995 L16.736,14.995 L16.736,23.995 L21.995,23.995 C23.1,23.995 23.995,23.1 23.995,21.995 L23.995,1.995 C23.995,0.89 23.1,-0.005 21.995,-0.005 Z"/>
</svg>
