<svg xmlns="http://www.w3.org/2000/svg" width="24" height="24" viewBox="0 0 24 24">
  <path d="M24,4.36696735 C23.1,4.77933848 22.2,5.08861684 21.2,5.19170962 C22.2,4.57315292 23,3.54222508 23.4,2.40820447 C22.4,3.02676117 21.4,3.4391323 20.3,3.64531787 C19.4,2.61439003 18.1,1.99583333 16.7,1.99583333 C14,1.99583333 11.8,4.26387457 11.8,7.04737972 C11.8,7.45975086 11.8,7.87212199 11.9,8.18140034 C7.7,7.97521477 4.1,5.9133591 1.7,2.8205756 C1.2,3.64531787 1,4.47006013 1,5.39789519 C1,7.15047251 1.9,8.69686426 3.2,9.62469931 C2.4,9.62469931 1.6,9.41851374 1,9.00614261 C1,9.00614261 1,9.00614261 1,9.10923539 C1,11.5834622 2.7,13.6453178 4.9,14.057689 C4.5,14.1607818 4.1,14.2638745 3.6,14.2638745 C3.3,14.2638745 3,14.2638745 2.7,14.1607818 C3.3,16.2226374 5.1,17.6659364 7.3,17.6659364 C5.6,19.0061426 3.5,19.8308848 1.2,19.8308848 C0.8,19.8308848 0.4,19.8308848 1.77635684e-15,19.7277921 C2.2,21.171091 4.8,21.9958333 7.5,21.9958333 C16.6,21.9958333 21.5,14.2638745 21.5,7.56284364 C21.5,7.35665807 21.5,7.15047251 21.5,6.94428694 C22.5,6.22263745 23.3,5.2948024 24,4.36696735 Z"/>
</svg>
